<svg id="livetype" xmlns="http://www.w3.org/2000/svg" xmlns:xlink="http://www.w3.org/1999/xlink" viewBox="0 0 119.66 40"><defs><style>.cls-1{fill:#b7b7b7;}.cls-10,.cls-2,.cls-3{fill:#fff;}.cls-2{stroke:#fff;stroke-miterlimit:10;stroke-width:0.2px;}.cls-4{fill:url(#linear-gradient);}.cls-5{fill:url(#linear-gradient-2);}.cls-6{fill:url(#linear-gradient-3);}.cls-7{fill:url(#linear-gradient-4);}.cls-8,.cls-9{fill:#020101;}.cls-8{opacity:0.2;}.cls-10,.cls-8,.cls-9{isolation:isolate;}.cls-9{opacity:0.12;}.cls-10{opacity:0.25;}</style><linearGradient id="linear-gradient" x1="20.67" y1="-42.86" x2="6.21" y2="-57.33" gradientTransform="matrix(1, 0, 0, -1, 0, -33)" gradientUnits="userSpaceOnUse"><stop offset="0" stop-color="#4699d0"/><stop offset="0.01" stop-color="#459ad1"/><stop offset="0.26" stop-color="#1abaeb"/><stop offset="0.51" stop-color="#4ec3ed"/><stop offset="0.76" stop-color="#6ac8e7"/><stop offset="1" stop-color="#72cae5"/></linearGradient><linearGradient id="linear-gradient-2" x1="31.05" y1="-52.6" x2="10.19" y2="-52.6" gradientTransform="matrix(1, 0, 0, -1, 0, -33)" gradientUnits="userSpaceOnUse"><stop offset="0" stop-color="#ffe103"/><stop offset="0.41" stop-color="#fdbd00"/><stop offset="0.78" stop-color="#f8a500"/><stop offset="1" stop-color="#f69b00"/></linearGradient><linearGradient id="linear-gradient-3" x1="23.28" y1="-54.57" x2="3.66" y2="-74.19" gradientTransform="matrix(1, 0, 0, -1, 0, -33)" gradientUnits="userSpaceOnUse"><stop offset="0" stop-color="#e93a3d"/><stop offset="1" stop-color="#c41463"/></linearGradient><linearGradient id="linear-gradient-4" x1="8.17" y1="-35.5" x2="16.93" y2="-44.27" gradientTransform="matrix(1, 0, 0, -1, 0, -33)" gradientUnits="userSpaceOnUse"><stop offset="0" stop-color="#33a071"/><stop offset="0.07" stop-color="#30a772"/><stop offset="0.48" stop-color="#54b867"/><stop offset="0.8" stop-color="#6bbe66"/><stop offset="1" stop-color="#72c066"/></linearGradient></defs><title>Android_United_Kingdom</title><path class="cls-1" d="M110.13,0H7.52a13.51,13.51,0,0,0-2,.18,6.74,6.74,0,0,0-1.9.63A6.07,6.07,0,0,0,2,2,6.07,6.07,0,0,0,.82,3.62a6.74,6.74,0,0,0-.63,1.9,12.18,12.18,0,0,0-.17,2c0,.31,0,.62,0,.92V31.56c0,.31,0,.61,0,.92a12.18,12.18,0,0,0,.17,2,6.8,6.8,0,0,0,.63,1.91A6.19,6.19,0,0,0,2,38a6.07,6.07,0,0,0,1.62,1.18,6.74,6.74,0,0,0,1.9.63,13.51,13.51,0,0,0,2,.18H112.14a13.39,13.39,0,0,0,2-.18,6.91,6.91,0,0,0,1.91-.63A6.24,6.24,0,0,0,117.67,38a6.68,6.68,0,0,0,1.18-1.61,7.12,7.12,0,0,0,.62-1.91,13.39,13.39,0,0,0,.18-2c0-.31,0-.61,0-.92V8.44c0-.3,0-.61,0-.92a13.39,13.39,0,0,0-.18-2,7.05,7.05,0,0,0-.62-1.9A6.54,6.54,0,0,0,117.67,2,6.24,6.24,0,0,0,116.05.82a6.91,6.91,0,0,0-1.91-.63,13.39,13.39,0,0,0-2-.18h-2Z"/><path d="M8.44,39.12h-.9A11.52,11.52,0,0,1,5.67,39,5.89,5.89,0,0,1,4,38.4a5.16,5.16,0,0,1-1.39-1,5.19,5.19,0,0,1-1-1.4,5.79,5.79,0,0,1-.55-1.66,12.1,12.1,0,0,1-.16-1.87c0-.21,0-.92,0-.92V8.44s0-.69,0-.89a12,12,0,0,1,.16-1.87A5.69,5.69,0,0,1,1.6,4a5.06,5.06,0,0,1,1-1.4A5.52,5.52,0,0,1,4,1.6a5.79,5.79,0,0,1,1.66-.55A12.1,12.1,0,0,1,7.54.89H112.13a12.08,12.08,0,0,1,1.86.16,6,6,0,0,1,1.67.55A5.49,5.49,0,0,1,118.07,4a5.92,5.92,0,0,1,.54,1.65,13.68,13.68,0,0,1,.17,1.88v.89c0,.38,0,.74,0,1.1V30.46c0,.37,0,.72,0,1.08v.93a13.12,13.12,0,0,1-.17,1.85,5.85,5.85,0,0,1-.54,1.67,5.42,5.42,0,0,1-1,1.39,5.19,5.19,0,0,1-1.4,1A5.59,5.59,0,0,1,114,39a11.52,11.52,0,0,1-1.87.16H8.44Z"/><path class="cls-2" d="M41.63,11.18A2.32,2.32,0,0,1,41,12.91a2.52,2.52,0,0,1-1.9.77A2.66,2.66,0,0,1,36.4,11a2.66,2.66,0,0,1,2.69-2.7,2.58,2.58,0,0,1,1.06.22,2.06,2.06,0,0,1,.81.58l-.46.45a1.73,1.73,0,0,0-1.41-.61,2,2,0,0,0-1.42.57A2,2,0,0,0,37.08,11a2,2,0,0,0,.59,1.5,2,2,0,0,0,1.42.57,1.92,1.92,0,0,0,1.44-.58A1.64,1.64,0,0,0,41,11.41H39.09v-.62h2.5A1.84,1.84,0,0,1,41.63,11.18Z"/><path class="cls-2" d="M45.6,9H43.25v1.64h2.12v.62H43.25v1.64H45.6v.64h-3V8.39h3Z"/><path class="cls-2" d="M48.41,13.56h-.67V9H46.3V8.39h3.55V9H48.41Z"/><path class="cls-2" d="M52.42,13.56V8.39h.67v5.17Z"/><path class="cls-2" d="M56,13.56h-.67V9H53.93V8.39h3.55V9H56Z"/><path class="cls-2" d="M64.21,12.89a2.67,2.67,0,0,1-3.79,0A2.63,2.63,0,0,1,59.66,11a2.62,2.62,0,0,1,.76-1.91,2.67,2.67,0,0,1,3.79,0A2.62,2.62,0,0,1,65,11,2.63,2.63,0,0,1,64.21,12.89Zm-3.3-.43a2,2,0,0,0,2.81,0A2,2,0,0,0,64.29,11a2,2,0,0,0-.57-1.48,2,2,0,0,0-2.81,0A2,2,0,0,0,60.33,11,2,2,0,0,0,60.91,12.46Z"/><path class="cls-2" d="M65.9,13.56V8.39h.81l2.52,4h0l0-1v-3h.66v5.17H69.2L66.57,9.34h0l0,1v3.22Z"/><path class="cls-3" d="M59.76,21.11a3.67,3.67,0,1,0,3.68,3.66A3.61,3.61,0,0,0,59.76,21.11Zm0,5.88a2.23,2.23,0,1,1,2.07-2.22A2.12,2.12,0,0,1,59.76,27Zm-8-5.88a3.67,3.67,0,1,0,3.68,3.66A3.61,3.61,0,0,0,51.73,21.11Zm0,5.88a2.23,2.23,0,1,1,2.07-2.22A2.12,2.12,0,0,1,51.73,27Zm-9.55-4.76v1.56H45.9a3.19,3.19,0,0,1-.85,1.95,3.78,3.78,0,0,1-2.87,1.14,4.14,4.14,0,0,1,0-8.27A3.93,3.93,0,0,1,45,19.72l1.1-1.1a5.42,5.42,0,0,0-3.9-1.57,5.7,5.7,0,1,0,0,11.39,5.22,5.22,0,0,0,4-1.6A5.13,5.13,0,0,0,47.5,23.2a4.71,4.71,0,0,0-.09-1Zm39.06,1.21a3.41,3.41,0,0,0-3.14-2.33,3.48,3.48,0,0,0-3.46,3.66,3.59,3.59,0,0,0,3.64,3.67,3.66,3.66,0,0,0,3.06-1.63L80.09,26a2.1,2.1,0,0,1-1.81,1,1.87,1.87,0,0,1-1.78-1.11l4.91-2Zm-5,1.22a2,2,0,0,1,1.92-2.14,1.42,1.42,0,0,1,1.36.78Zm-4,3.56h1.61V17.44H72.25Zm-2.64-6.3h0a2.54,2.54,0,0,0-1.93-.81,3.67,3.67,0,0,0,0,7.33,2.52,2.52,0,0,0,1.93-.83h0v.52c0,1.41-.75,2.16-2,2.16A2,2,0,0,1,65.81,29l-1.4.58a3.48,3.48,0,0,0,3.25,2.17c1.88,0,3.48-1.11,3.48-3.82V21.33H69.61ZM67.77,27a2.23,2.23,0,0,1,0-4.44,2.07,2.07,0,0,1,2,2.24A2.05,2.05,0,0,1,67.77,27Zm21-9.55H84.93V28.22h1.61V24.13h2.25a3.35,3.35,0,1,0,0-6.69Zm0,5.19H86.54V18.94h2.29a1.85,1.85,0,1,1,0,3.69Zm9.94-1.54a3,3,0,0,0-2.87,1.65l1.43.59a1.53,1.53,0,0,1,1.47-.79,1.55,1.55,0,0,1,1.69,1.39V24a3.52,3.52,0,0,0-1.68-.42c-1.54,0-3.1.85-3.1,2.43a2.49,2.49,0,0,0,2.67,2.37,2.28,2.28,0,0,0,2.05-1.05h.06v.83H102V24.07A3,3,0,0,0,98.77,21.09ZM98.58,27c-.53,0-1.27-.26-1.27-.91,0-.83.92-1.15,1.71-1.15a2.84,2.84,0,0,1,1.47.36A2,2,0,0,1,98.58,27Zm9.12-5.67L105.86,26h-.06l-1.91-4.67h-1.74L105,27.85l-1.63,3.63h1.67l4.43-10.16Zm-14.49,6.9h1.61V17.44H93.21Z"/><path class="cls-4" d="M10.88,8.85a1.74,1.74,0,0,0-.4,1.21V29.13a1.72,1.72,0,0,0,.4,1.21l.06.06L21.62,19.72v-.25L10.94,8.79Z"/><path class="cls-5" d="M25.18,23.28l-3.56-3.56v-.25l3.56-3.56.08,0,4.22,2.4a1.31,1.31,0,0,1,0,2.49l-4.22,2.4Z"/><path class="cls-6" d="M25.26,23.24,21.62,19.6,10.88,30.34a1.4,1.4,0,0,0,1.79.05l12.59-7.15"/><path class="cls-7" d="M25.26,16,12.67,8.8a1.4,1.4,0,0,0-1.79,0L21.62,19.6Z"/><path class="cls-8" d="M25.18,23.16,12.67,30.27a1.44,1.44,0,0,1-1.73,0h0l-.06.06h0l.06.06h0a1.44,1.44,0,0,0,1.73,0l12.59-7.15Z"/><path class="cls-9" d="M10.88,30.21a1.71,1.71,0,0,1-.4-1.21v.13a1.72,1.72,0,0,0,.4,1.21l.06-.06Z"/><path class="cls-9" d="M29.48,20.71l-4.3,2.45.08.08,4.22-2.4a1.51,1.51,0,0,0,.9-1.24h0A1.59,1.59,0,0,1,29.48,20.71Z"/><path class="cls-10" d="M12.67,8.92l16.81,9.56a1.59,1.59,0,0,1,.9,1.12h0a1.51,1.51,0,0,0-.9-1.25L12.67,8.8c-1.21-.69-2.19-.12-2.19,1.26v.13C10.48,8.81,11.46,8.24,12.67,8.92Z"/></svg>