<svg id="Layer_1" data-name="Layer 1" xmlns="http://www.w3.org/2000/svg" viewBox="0 0 5280.9 1456"><defs><style>.cls-1{fill:#27574f;}.cls-2{fill:#bcece5;}.cls-3{fill:#79d0c6;}.cls-4{fill:#45ada1;}</style></defs><title>TGTG_Logo_Horisontal_800x1500_RGB_Rastered</title><path class="cls-1" d="M2260,947.1h-69.4V651.5h-71.8V591.1h213v60.4H2260Z" transform="translate(-88.1 -23.6)"/><path class="cls-1" d="M2535.8,831.4c0,71.8-49.1,123.2-121.8,123.2s-121.8-51.4-121.8-123.2,49.5-123.7,121.8-123.7S2535.8,759.2,2535.8,831.4Zm-176.6,0c0,31.2,20.8,64.7,54.8,64.7s54.7-33.5,54.7-64.7-20.7-65.1-54.7-65.1S2359.2,799.3,2359.2,831.4Z" transform="translate(-88.1 -23.6)"/><path class="cls-1" d="M2794.5,831.4c0,71.8-49.1,123.2-121.8,123.2s-121.8-51.4-121.8-123.2,49.6-123.7,121.8-123.7S2794.5,759.2,2794.5,831.4Zm-176.6,0c0,31.2,20.8,64.7,54.8,64.7s54.8-33.5,54.8-64.7-20.8-65.1-54.8-65.1S2617.9,799.3,2617.9,831.4Z" transform="translate(-88.1 -23.6)"/><path class="cls-1" d="M3278.4,757.8v8.9c0,100.6-51.5,189.8-161.9,189.8-103.9,0-169.5-87.8-169.5-186,0-101.5,67.5-188.8,173.7-188.8,60.4,0,113.3,30.6,140.7,84.9L3200,699.7c-14.1-32.1-44.4-56.7-81.2-56.7-67,0-100.1,68.5-100.1,127.5s33.6,124.6,100.6,124.6c43.4,0,79.8-37.7,81.2-80.7H3125V757.8Z" transform="translate(-88.1 -23.6)"/><path class="cls-1" d="M3538.5,831.4c0,71.8-49.1,123.2-121.8,123.2s-121.8-51.4-121.8-123.2,49.6-123.7,121.8-123.7S3538.5,759.2,3538.5,831.4Zm-176.5,0c0,31.2,20.8,64.7,54.7,64.7s54.8-33.5,54.8-64.7-20.8-65.1-54.8-65.1S3362,799.3,3362,831.4Z" transform="translate(-88.1 -23.6)"/><path class="cls-1" d="M3797.3,831.4c0,71.8-49.1,123.2-121.8,123.2s-121.8-51.4-121.8-123.2,49.5-123.7,121.8-123.7S3797.3,759.2,3797.3,831.4Zm-176.6,0c0,31.2,20.8,64.7,54.8,64.7s54.7-33.5,54.7-64.7-20.8-65.1-54.7-65.1S3620.7,799.3,3620.7,831.4Z" transform="translate(-88.1 -23.6)"/><path class="cls-1" d="M3981.9,925.4h-1c-13.7,18.8-38.2,29.2-62.3,29.2-68,0-106.7-61.8-106.7-124.6s39.2-122.3,105.7-122.3c24.1,0,48.7,10.4,63.3,28.8h1V546.7h66V947.1h-66Zm6.6-94.5c0-31.1-20.8-64.6-54.8-64.6s-54.8,33.5-54.8,64.6,20.8,65.2,54.8,65.2S3988.5,862.1,3988.5,830.9Z" transform="translate(-88.1 -23.6)"/><path class="cls-1" d="M4349.2,947.1h-69.4V651.5H4208V591.1h212.9v60.4h-71.7Z" transform="translate(-88.1 -23.6)"/><path class="cls-1" d="M4624.9,831.4c0,71.8-49.1,123.2-121.8,123.2s-121.8-51.4-121.8-123.2,49.6-123.7,121.8-123.7S4624.9,759.2,4624.9,831.4Zm-176.5,0c0,31.2,20.7,64.7,54.7,64.7s54.8-33.5,54.8-64.7-20.8-65.1-54.8-65.1S4448.4,799.3,4448.4,831.4Z" transform="translate(-88.1 -23.6)"/><path class="cls-1" d="M5108.8,757.8v8.9c0,100.6-51.4,189.8-161.9,189.8-103.8,0-169.5-87.8-169.5-186,0-101.5,67.5-188.8,173.8-188.8,60.4,0,113.3,30.6,140.6,84.9l-61.3,33.1c-14.2-32.1-44.4-56.7-81.2-56.7-67.1,0-100.1,68.5-100.1,127.5s33.5,124.6,100.5,124.6c43.5,0,79.8-37.7,81.3-80.7h-75.6V757.8Z" transform="translate(-88.1 -23.6)"/><path class="cls-1" d="M5369,831.4c0,71.8-49.1,123.2-121.8,123.2s-121.8-51.4-121.8-123.2,49.6-123.7,121.8-123.7S5369,759.2,5369,831.4Zm-176.6,0c0,31.2,20.8,64.7,54.8,64.7s54.8-33.5,54.8-64.7-20.8-65.1-54.8-65.1S5192.4,799.3,5192.4,831.4Z" transform="translate(-88.1 -23.6)"/><ellipse class="cls-2" cx="1265.7" cy="858.3" rx="733.9" ry="430.2" transform="translate(-301.3 1224) rotate(-48.9)"/><ellipse class="cls-3" cx="900.2" cy="728" rx="433.7" ry="728"/><ellipse class="cls-4" cx="669.4" cy="858.3" rx="430.2" ry="733.9" transform="translate(-487.4 628.1) rotate(-41.1)"/></svg>